<svg width="6" height="10" viewBox="0 0 6 10" fill="none" xmlns="http://www.w3.org/2000/svg">
<path d="M4.86003 9.39337L1.14003 5.6667C1.01586 5.5418 0.946167 5.37283 0.946167 5.1967C0.946167 5.02058 1.01586 4.85161 1.14003 4.7267L4.86003 1.00004C4.95328 0.906017 5.07241 0.841897 5.20224 0.81585C5.33207 0.789804 5.46672 0.803011 5.58902 0.853789C5.71131 0.904567 5.81572 0.990614 5.88892 1.10096C5.96212 1.21131 6.0008 1.34095 6.00003 1.47337V8.92004C6.0008 9.05245 5.96212 9.1821 5.88892 9.29245C5.81572 9.40279 5.71131 9.48884 5.58902 9.53962C5.46672 9.59039 5.33207 9.6036 5.20224 9.57756C5.07241 9.55151 4.95328 9.48739 4.86003 9.39337Z" fill="#883DCF"/>
</svg>
