<svg width="6" height="10" viewBox="0 0 6 10" fill="none" xmlns="http://www.w3.org/2000/svg">
<path d="M0 8.9193V1.4713C2.81495e-05 1.33947 0.0391425 1.2106 0.112399 1.101C0.185655 0.991392 0.289764 0.905965 0.411563 0.855518C0.533363 0.805072 0.667384 0.79187 0.796686 0.817581C0.925988 0.843293 1.04476 0.906764 1.138 0.99997L4.86199 4.72397C4.98697 4.84899 5.05718 5.01853 5.05718 5.1953C5.05718 5.37208 4.98697 5.54162 4.86199 5.66664L1.138 9.39064C1.04476 9.48384 0.925988 9.54731 0.796686 9.57303C0.667384 9.59874 0.533363 9.58554 0.411563 9.53509C0.289764 9.48464 0.185655 9.39922 0.112399 9.28961C0.0391425 9.18 2.81495e-05 9.05114 0 8.9193Z" fill="#883DCF"/>
</svg>
